<svg width="37" height="38" viewBox="0 0 37 38" fill="none" xmlns="http://www.w3.org/2000/svg">
    <path
        d="M17.6689 4.13294L20.236 4.80364L22.4254 5.37412L22.4794 5.38954L23.5279 7.54041L24.7074 9.9534L25.7635 12.1043L33.1104 27.0987L33.8813 28.6714L29.9342 29.4731L31.0521 31.4621L31.3296 31.9555C34.6368 28.6405 36.6875 24.0613 36.6875 19.004C36.6875 8.87411 28.4772 0.663787 18.3473 0.663787C8.21734 0.663787 0.00703815 8.87411 0.00703771 19.004C0.00703758 21.9798 0.723993 24.7936 1.9806 27.276L17.6843 4.14835L17.6689 4.13294Z"
        fill="#4141A3" />
    <path
        d="M20.6629 12.9676L21.9889 15.3266L23.2069 17.5006L28.9812 27.7693L31.6562 27.3299L24.8259 13.8541L23.7235 11.6801L22.4977 9.26715L21.3799 7.06232L19.0902 10.7627L16.5539 14.8486L6.16958 31.516L5.6993 32.2715C6.30833 32.8574 6.96361 33.397 7.64973 33.8904L8.39753 33.7439L10.0936 30.8761L18.2653 17.0612L20.6783 12.9753L20.6629 12.9676Z"
        fill="#4141A3" />
    <path
        d="M27.4056 32.3398L17.1986 34.8453L17.1061 34.8684L13.529 35.7473L15.2867 32.4246L16.6821 29.7881L25.0389 28.4158L20.9838 21.6548L19.6424 19.4269L13.475 30.3123L11.8947 33.1107L10.4916 35.5931C12.866 36.711 15.518 37.3431 18.3164 37.3431C22.0939 37.3431 25.6094 36.2021 28.5234 34.244L27.3902 32.3475L27.4056 32.3398Z"
        fill="#4141A3" />
</svg>